# xmcd CD database file
#
# Track frame offsets:
#	150
#	15365
#	32195
#	46648
#	62741
#	78767
#	91013
#	105866
#	119449
#	134915
#	153487
#	170120
#	185596
#	202784
#	220333
#
# Disc length: 3122 seconds
#
# Revision: 1
# Processed by: cddbd v1.5.2PL0 Copyright (c) Steve Scherf et al.
# Submitted via: CDex 1.51
#
DISCID=bf0c300f
DTITLE=Mark Chesnutt - The Ultimate Collection [CD 2)
DYEAR=2011
DGENRE=Country
TTITLE0=Down In Tennessee
TTITLE1=Gonna Get A Life
TTITLE2=It Wouldn't Hurt To Have Wings
TTITLE3=Trouble
TTITLE4=Wrong Place Wrong Time
TTITLE5=It's A Little Too Late
TTITLE6=It's Not Over (If I'm Not Over You)
TTITLE7=Let It Rain
TTITLE8=Thank God For Believers
TTITLE9=I Don't Want To Miss A Thing
TTITLE10=I Might Even Quit Lovin' You
TTITLE11=Wherever You Are
TTITLE12=This Heartache Never Sleeps
TTITLE13=Fallin' Never Felt So Good
TTITLE14=Lost In The Feeling
EXTD=YEAR: 2011
EXTT0=
EXTT1=
EXTT2=
EXTT3=
EXTT4=
EXTT5=
EXTT6=
EXTT7=
EXTT8=
EXTT9=
EXTT10=
EXTT11=
EXTT12=
EXTT13=
EXTT14=
PLAYORDER=
